<?xml version="1.0" encoding="utf-8"?>
<!DOCTYPE svg PUBLIC "-//W3C//DTD SVG 1.0//EN" "http://www.w3.org/TR/2001/REC-SVG-20010904/DTD/svg10.dtd">
<svg version="1.0" xmlns="http://www.w3.org/2000/svg" width="500px" height="500px" viewBox="0 0 500 500" preserveAspectRatio="xMidYMid meet">
 <g fill="#2b4f73">
  <path d="M354.3 418.7 c-3.7 -2 -37.5 -26.3 -43.8 -31.5 -0.5 -0.4 -2.5 -1.9 -4.4 -3.2 -3.8 -2.8 -30.2 -22.2 -36.9 -27.1 -10.7 -7.9 -18.7 -9.7 -26.1 -5.9 -2.2 1.1 -13.9 12 -26.1 24.4 -18.9 19.1 -22.8 22.5 -26.3 23.5 -5 1.3 -8.1 1 -12.4 -1.2 -4.9 -2.6 -6.7 -5.6 -10.7 -18.4 -5.9 -18.7 -13.9 -44.4 -19.6 -62.3 -2.8 -9.1 -5.6 -17.8 -6.2 -19.5 -4.4 -12.2 -11.9 -21.9 -21.7 -28.2 -5.5 -3.5 -8.2 -4.4 -45.1 -15.3 -9.1 -2.6 -20.5 -6 -25.5 -7.5 -4.9 -1.5 -10.9 -3.2 -13.2 -3.8 -6.2 -1.5 -10.5 -6.3 -11 -12.4 -0.4 -4.1 -0.1 -5.4 2.4 -8.8 2.6 -3.5 4.4 -4.5 14.4 -8.3 6.3 -2.4 12.3 -4.7 13.4 -5.2 1.1 -0.5 10.3 -4.1 20.5 -8.1 10.2 -3.9 19.9 -7.7 21.5 -8.4 1.7 -0.7 13.1 -5.2 25.5 -10 31.9 -12.4 63 -24.5 66.5 -26 1.7 -0.7 10.9 -4.3 20.5 -8 9.6 -3.7 18.9 -7.3 20.5 -8 1.7 -0.6 10.9 -4.2 20.5 -8 9.6 -3.7 18.9 -7.3 20.5 -8 1.7 -0.7 10.9 -4.3 20.5 -8 9.6 -3.7 24.7 -9.6 33.5 -13.1 30.5 -12 59.7 -23.5 67.8 -26.5 4.5 -1.7 12.7 -4.9 18.2 -7.1 16.3 -6.5 24.8 -6.2 31.3 1.1 5 5.5 6.2 11.7 4.2 20.3 -0.5 2.4 -3.7 17.6 -7 33.8 -3.4 16.2 -8.3 40.1 -11 53 -15.8 75.7 -19.6 94 -24.6 117.5 -3 14.3 -5.7 27.1 -6 28.5 -0.2 1.4 -1.2 5.7 -2 9.5 -0.9 3.9 -1.8 8.4 -2.1 10 -0.2 1.7 -1.1 5.9 -1.9 9.5 -0.8 3.6 -1.7 7.6 -1.9 9 -5.1 25.5 -10 47.1 -11.3 49.1 -5.2 8.2 -17.8 12.5 -24.9 8.6z m-127.2 -140.3 c0.9 -1.1 2.2 -4.3 2.8 -7.3 0.6 -3 2.6 -8.1 4.3 -11.4 2.9 -5.4 9.7 -11.7 71.5 -66.6 58.2 -51.6 68.3 -61 68.1 -63 -0.7 -5.7 -2.6 -5.1 -23.9 8.1 -11.2 6.9 -22.6 13.8 -25.2 15.4 -2.7 1.6 -6.6 4 -8.8 5.4 -2.2 1.4 -9.5 5.8 -16.2 9.9 -6.7 4.1 -15.1 9.3 -18.7 11.6 -3.6 2.3 -14.8 9.3 -24.9 15.5 -10.1 6.2 -19.8 12.2 -21.6 13.4 -1.8 1.1 -7.2 4.6 -12 7.5 -9.8 6.2 -12.2 8.7 -16 16.7 -4.1 8.6 -3.8 15.7 1.4 32 4.2 13.4 5.5 15.5 10.6 16.6 2.4 0.5 6.4 -1.3 8.6 -3.8z"/>
 </g>
</svg>